PathFileType	4	(X/Y/Z)	C:/Users/opensim2020/Desktop/walking_exp_matlab/subject03_walking08_straight_02.trc	
DataRate	CameraRate	NumFrames	NumMarkers	Units	OrigDataRate	OrigDataStartFrame	OrigNumFrames	
100.00	100.00	9	51	mm	100.00	1710	314	
Frame#	Time	LFHD			RFHD			LBHD			RBHD			C7			T10			CLAV			STRN			RBAK			LSHO			LUPA			LELB			LFRM			LWRA			LWRB			LFIN			RSHO			RUPA			RELB			RFRM			RWRA			RWRB			RFIN			LASI			RASI			LPSI			RPSI			LTHI			LKNE			LTIB			LANK			LHEE			LTOE			RTHI			RKNE			RTIB			RANK			RHEE			RTOE			*39			*40			*41			*42			*43			*44			*45			*46			*47			*48			*49			*50			
		X1	Y1	Z1	X2	Y2	Z2	X3	Y3	Z3	X4	Y4	Z4	X5	Y5	Z5	X6	Y6	Z6	X7	Y7	Z7	X8	Y8	Z8	X9	Y9	Z9	X10	Y10	Z10	X11	Y11	Z11	X12	Y12	Z12	X13	Y13	Z13	X14	Y14	Z14	X15	Y15	Z15	X16	Y16	Z16	X17	Y17	Z17	X18	Y18	Z18	X19	Y19	Z19	X20	Y20	Z20	X21	Y21	Z21	X22	Y22	Z22	X23	Y23	Z23	X24	Y24	Z24	X25	Y25	Z25	X26	Y26	Z26	X27	Y27	Z27	X28	Y28	Z28	X29	Y29	Z29	X30	Y30	Z30	X31	Y31	Z31	X32	Y32	Z32	X33	Y33	Z33	X34	Y34	Z34	X35	Y35	Z35	X36	Y36	Z36	X37	Y37	Z37	X38	Y38	Z38	X39	Y39	Z39	X40	Y40	Z40	X41	Y41	Z41	X42	Y42	Z42	X43	Y43	Z43	X44	Y44	Z44	X45	Y45	Z45	X46	Y46	Z46	X47	Y47	Z47	X48	Y48	Z48	X49	Y49	Z49	X50	Y50	Z50	X51	Y51	Z51	

158	1.570	1516.08655	-75.05632	1617.91406	1383.76428	-58.57659	1617.97974	1528.30334	56.65882	1588.22314	1397.23193	68.09320	1587.78345	1473.45911	104.05750	1419.94446	1469.70483	125.50642	1102.82727	1468.60901	-17.88128	1345.32422	1474.91663	-69.56432	1184.04785	1377.87976	154.14420	1239.59521	1624.31555	23.24330	1381.59583	1694.97046	2.13796	1187.21057	1705.58899	-26.34019	1067.51501	1700.05029	-85.23798	951.76886	1663.82654	-136.71852	846.41907	1714.62463	-113.58603	841.79138	1701.41516	-153.67934	768.44751	1310.06335	31.66102	1367.35205	1243.25769	24.67255	1142.09375	1236.40283	8.67601	1029.37024	1237.18958	-2.63352	892.69391	1276.75769	-23.58446	796.30078	1228.32349	1.64344	792.14545	1243.13623	-13.40146	718.71558	1588.98767	-38.13735	938.26697	1350.97559	-50.35086	947.70734	1529.27930	120.04011	966.28662	1381.36560	111.66457	976.05505	1629.32813	62.92733	641.63556	1606.10620	94.87809	464.54742	1597.67786	239.86897	323.31741	1550.45435	364.75705	155.68678	1509.05920	411.18469	154.83467	1517.08374	274.38266	32.62642	1308.65674	-23.89319	652.38696	1348.23560	-63.18790	475.95950	1343.40271	-49.32882	287.98029	1391.60217	-62.60783	72.31074	1444.78442	-20.72620	40.11068	1405.06653	-205.51381	38.35254																																				 
159	1.580	1515.35095	-84.17406	1618.30371	1383.01697	-67.65005	1618.17334	1527.59973	47.71595	1589.29321	1396.53210	59.20713	1588.73401	1472.57971	95.58015	1420.49841	1468.08167	116.49217	1103.27673	1468.07568	-26.61976	1346.10376	1474.35095	-78.64063	1184.89551	1376.64294	144.83197	1240.07446	1623.53918	15.04937	1382.20691	1694.00049	-4.53268	1187.54065	1704.48547	-31.25833	1067.36145	1699.25000	-88.52186	950.68866	1663.36877	-138.71687	844.44940	1713.87329	-114.99822	840.12433	1700.74927	-153.43469	765.76910	1309.41931	22.47866	1368.16223	1242.02161	14.11317	1143.20276	1234.96265	-2.41920	1030.58044	1235.56750	-14.69596	894.00763	1275.01990	-35.85658	797.47797	1226.44727	-11.03313	793.45410	1241.28894	-26.56923	720.10522	1588.02380	-46.80777	939.08344	1350.04932	-59.58719	948.04907	1527.74780	111.41126	966.92670	1379.88733	102.30898	976.94360	1630.17065	50.99184	641.24048	1608.27466	79.64482	463.49448	1599.08728	226.69102	324.92169	1551.79736	355.16107	160.57314	1509.86768	401.18658	162.63599	1516.94324	272.94302	32.45252	1308.08459	-30.26904	652.81415	1347.46497	-68.36127	475.85138	1343.03589	-52.57215	288.06409	1391.80835	-62.84481	72.36304	1444.81787	-20.73640	40.11591	1405.18896	-205.64438	38.22816																																				 
160	1.590	1514.66626	-93.19418	1618.53394	1382.38232	-76.55900	1618.31433	1526.98926	38.85962	1590.19153	1395.94373	50.31360	1589.49707	1471.62219	87.20903	1420.89905	1466.30847	107.54807	1103.55591	1467.46741	-35.22403	1346.67529	1473.79248	-87.46098	1185.46777	1375.26074	135.56790	1240.18665	1622.88147	6.93424	1382.54199	1693.14392	-11.22253	1187.54932	1703.33289	-36.28542	1066.90613	1698.48950	-91.85356	949.37659	1662.89758	-140.67004	842.29517	1713.13477	-116.15482	838.22656	1700.08081	-153.13989	762.96979	1308.76123	13.27861	1368.80652	1240.68445	3.67816	1144.02502	1233.40210	-13.53257	1031.54224	1233.83594	-26.86486	895.10468	1273.23743	-48.78069	798.81702	1224.67700	-23.92943	794.47070	1239.34338	-39.85742	721.32056	1587.21265	-55.21859	939.64154	1349.25659	-68.66871	947.99847	1526.43604	103.16672	967.38910	1378.46606	93.16286	977.56586	1630.94495	38.90274	640.63342	1610.04004	63.91753	462.13095	1600.13635	212.89873	326.23737	1553.41541	344.40948	165.10118	1511.36646	390.33304	170.68755	1517.39697	270.88876	32.93584	1307.19336	-36.65228	653.21558	1346.63708	-73.61720	475.68753	1342.62695	-55.75809	288.08279	1391.91162	-63.04076	72.32880	1444.81262	-20.77875	40.13866	1405.27417	-205.79713	38.15649																																				 
161	1.600	1514.10107	-102.09627	1618.65869	1381.82605	-85.42525	1618.43103	1526.46948	30.04358	1590.83862	1395.37500	41.48407	1590.04712	1470.62830	78.61570	1421.06262	1464.57739	98.79851	1103.75159	1466.93994	-43.81372	1346.98999	1473.21509	-96.04871	1185.80164	1373.82056	126.36349	1240.13196	1622.17957	-0.84346	1382.49744	1692.26245	-17.76218	1187.21558	1702.25281	-41.49621	1066.24219	1697.75745	-95.18223	947.77911	1662.52039	-142.46547	839.89911	1712.60339	-117.83653	836.31757	1699.44690	-152.93556	760.04602	1308.01184	4.11595	1369.17664	1239.38000	-6.76031	1144.65723	1231.81494	-24.63897	1032.31616	1232.01892	-38.99160	896.02338	1271.26355	-61.81426	799.95221	1222.80774	-36.86161	795.32690	1237.31091	-53.60917	722.35034	1586.32239	-63.16208	939.93732	1348.53857	-77.53249	947.71173	1525.14807	95.05134	967.35822	1377.16553	84.31595	977.99701	1631.57056	26.73073	639.73389	1611.45190	47.86094	460.66379	1601.60840	197.88696	327.31464	1555.45508	333.51114	169.80101	1513.60596	379.05005	178.91705	1517.69983	268.69254	34.27872	1305.82593	-43.36503	653.55725	1345.74597	-78.87299	475.62924	1342.22949	-59.17228	288.04260	1391.97424	-63.20539	72.23399	1444.75000	-20.75831	40.18028	1405.33447	-205.89040	38.08418																																				 
162	1.610	1513.59839	-110.90808	1618.65479	1381.31653	-94.14895	1618.51514	1525.94568	21.32016	1591.22620	1394.85535	32.69328	1590.45325	1469.85095	70.33151	1421.58264	1462.90283	90.25771	1103.81946	1466.32776	-52.03211	1347.14221	1472.72095	-104.59887	1186.06934	1372.27466	117.34546	1240.10608	1621.64966	-8.64515	1382.37988	1691.33948	-24.20114	1186.57581	1701.16199	-46.76384	1065.35413	1697.10425	-98.62406	946.08496	1662.20715	-144.28622	837.33533	1712.07458	-119.25191	834.05640	1698.90942	-152.77049	757.02679	1307.29297	-5.03365	1369.39771	1238.04565	-17.29446	1145.07642	1230.13489	-35.84460	1032.91589	1230.16541	-51.19128	896.66766	1269.41626	-74.50645	800.62823	1220.86475	-49.89966	796.01819	1235.28906	-67.51588	723.21252	1585.62903	-70.90565	940.03607	1348.00720	-86.22023	947.64197	1524.08301	87.41246	967.10339	1376.10205	75.75709	978.28986	1632.05945	14.62414	638.65424	1612.60767	31.35313	459.15738	1602.97498	182.74629	328.13031	1557.06714	322.19775	174.81113	1515.88892	367.48914	186.53821	1519.03674	263.11044	37.71889	1304.70374	-50.84948	653.94702	1344.94824	-84.21114	475.64117	1341.88269	-62.51796	288.05011	1392.08630	-63.31292	72.34263	1444.66406	-20.82143	40.12582	1405.39063	-205.96649	38.00517																																				 
163	1.620	1513.19006	-119.67416	1618.73804	1380.88721	-102.90888	1618.59839	1525.50146	12.59822	1591.39087	1394.42883	23.90498	1590.71692	1468.71448	61.82608	1421.56470	1461.35681	81.85273	1103.84448	1465.79944	-60.32667	1347.23108	1472.28699	-112.92343	1186.11182	1370.68408	108.38286	1240.06824	1621.17542	-16.48965	1382.04883	1690.37683	-30.54058	1185.75244	1700.14404	-52.07325	1064.30566	1696.46802	-102.23784	944.23578	1661.99451	-146.61931	834.84521	1711.62183	-120.55385	831.86700	1698.38623	-152.62602	754.00238	1306.52466	-14.18923	1369.41833	1236.76550	-27.79492	1145.37842	1228.41980	-47.04509	1033.35449	1228.38147	-63.74142	897.24274	1267.43628	-87.91255	801.45728	1219.07910	-63.30020	796.60388	1233.24280	-81.53237	724.04877	1585.03577	-78.34578	939.81873	1347.37134	-94.69724	947.25476	1523.13501	79.72401	966.39160	1375.24658	67.53205	978.53845	1632.52380	2.57233	637.51477	1613.46851	14.49947	457.65924	1604.60986	166.93639	328.91043	1558.07849	310.45190	180.26866	1516.96460	355.79312	193.03908	1521.13123	254.11545	41.60453	1303.86401	-56.45513	654.02002	1344.26685	-89.42907	475.67722	1341.43982	-65.73437	288.07138	1392.11218	-63.39956	72.31987	1444.56201	-20.78948	40.20084	1405.41748	-206.05058	37.96708																																				 
164	1.630	1512.80396	-128.33635	1618.66345	1380.48877	-111.72017	1618.73853	1525.02148	3.90706	1591.41357	1393.91443	15.16628	1590.84900	1467.79919	53.53194	1421.74463	1460.04736	73.72119	1103.91589	1465.37903	-68.61694	1347.24170	1472.04590	-121.02145	1186.06433	1369.11218	99.66592	1240.19128	1620.77002	-24.09635	1381.58704	1689.39111	-36.84165	1184.74414	1699.14587	-57.30648	1063.12463	1695.80701	-105.49496	942.20795	1661.78503	-148.17419	832.26648	1711.33240	-121.96215	829.64532	1697.97156	-152.63522	751.05347	1305.85425	-23.32386	1369.37866	1235.46558	-38.24596	1145.48633	1226.80237	-58.33675	1033.68262	1226.57898	-76.10040	897.74670	1265.48596	-101.63617	802.29535	1217.08740	-76.61367	797.11285	1231.23450	-95.79447	724.90222	1584.77026	-85.69250	939.39148	1346.88745	-102.99270	947.21667	1522.46777	72.37688	965.69794	1374.54285	59.62186	978.86383	1633.18958	-9.22713	636.54785	1614.35352	-2.69898	456.29855	1605.60852	150.92902	330.20547	1558.43384	298.27426	185.58104	1517.04858	343.54498	198.34213	1523.95020	242.00743	45.79608	1303.21277	-63.36689	654.24658	1343.73987	-94.50803	475.63623	1341.17456	-68.72849	287.98657	1392.09265	-63.58577	72.32091	1444.46753	-20.72842	40.22955	1405.46863	-206.10371	37.88943																																				 
165	1.640	1512.57031	-137.01624	1618.68872	1380.18188	-120.49183	1618.88684	1524.68079	-4.69135	1591.41663	1393.50293	6.50721	1590.99707	1467.00635	45.06512	1422.07983	1458.91248	65.79818	1104.16638	1464.98999	-76.80438	1347.28125	1471.86865	-128.92918	1185.93738	1367.50647	91.04746	1240.36487	1620.42810	-31.59115	1381.10742	1688.42273	-42.89436	1183.68188	1698.27539	-62.44261	1061.90588	1695.19922	-108.83511	940.27094	1661.44055	-149.50023	829.48285	1710.90210	-123.50318	827.40082	1697.70422	-152.73750	748.28265	1305.20789	-32.50474	1369.34277	1234.32593	-48.75479	1145.59485	1225.21802	-69.70650	1033.98706	1224.92285	-88.82892	898.20343	1263.72778	-114.84125	802.98138	1215.43250	-90.26571	797.66211	1229.25879	-110.31494	725.77325	1584.52368	-92.77026	938.87732	1346.51855	-110.97433	947.28711	1521.96521	65.06814	965.01398	1373.94507	51.89637	979.13788	1633.08972	-21.99269	635.77289	1615.04993	-20.14691	455.41006	1605.88977	134.72729	331.87149	1558.80688	284.59180	190.33350	1516.79834	330.30493	202.69868	1527.25793	228.25128	49.88926	1303.09375	-70.10197	654.23547	1343.41931	-99.36362	475.63937	1340.99255	-71.53403	287.94785	1392.17517	-63.64513	72.38674	1444.30164	-20.69618	40.40940	1405.51953	-206.16159	37.82977	1463.72864	-59.90791	1687.50720																																	 
166	1.650	1512.29773	-145.61086	1618.59070	1379.97034	-129.21353	1618.98206	1524.25989	-13.33700	1591.34033	1393.19226	-2.23794	1591.13464	1466.13147	36.78656	1422.35132	1457.91711	58.02707	1104.31799	1464.67395	-84.93468	1347.23975	1471.70300	-136.67415	1185.75232	1366.09534	82.64034	1240.77417	1620.15979	-38.87624	1380.63806	1687.51868	-48.77258	1182.68079	1697.35901	-67.47380	1060.73169	1694.57239	-112.12785	938.39252	1661.20422	-151.38599	826.99084	1710.54651	-124.96025	825.34528	1697.56836	-152.87593	745.74957	1304.61743	-41.60857	1369.24548	1233.21545	-59.19807	1145.72205	1223.75354	-81.14381	1034.36438	1223.24658	-101.47501	898.75214	1262.03870	-128.46234	803.79065	1213.58972	-103.86903	798.27502	1227.46777	-125.20805	726.80542	1584.36719	-99.88086	938.55719	1346.16650	-118.83601	947.52344	1521.48242	57.71092	964.27600	1373.47388	44.30698	979.38043	1633.36414	-34.60546	635.41418	1615.57947	-37.58428	455.11395	1605.92310	118.31118	333.64581	1558.67969	269.73166	194.26009	1516.31116	316.16910	206.20686	1530.74414	212.88937	53.81891	1302.97351	-76.00220	654.16449	1343.21631	-104.14609	475.48151	1340.94275	-74.13162	287.96286	1392.40588	-63.63814	72.51811	1444.52576	-20.80431	40.39873	1405.56799	-206.17944	37.77072																																				 
